<svg width="48" height="48" viewBox="0 0 48 48" fill="none" xmlns="http://www.w3.org/2000/svg">
<circle cx="24" cy="24" r="23.5" stroke="#141414"/>
<path fill-rule="evenodd" clip-rule="evenodd" d="M17.25 26.5C18.4926 26.5 19.5 25.4926 19.5 24.25C19.5 23.0074 18.4926 22 17.25 22C16.0074 22 15 23.0074 15 24.25C15 25.4926 16.0074 26.5 17.25 26.5ZM24.25 26.5C25.4926 26.5 26.5 25.4926 26.5 24.25C26.5 23.0074 25.4926 22 24.25 22C23.0074 22 22 23.0074 22 24.25C22 25.4926 23.0074 26.5 24.25 26.5ZM33.5 24.25C33.5 25.4926 32.4926 26.5 31.25 26.5C30.0074 26.5 29 25.4926 29 24.25C29 23.0074 30.0074 22 31.25 22C32.4926 22 33.5 23.0074 33.5 24.25Z" fill="#141414"/>
</svg>
